FFmpeg version SVN-r25716, Copyright (c) 2000-2010 the FFmpeg developers  built on Nov 10 2010 12:23:18 with gcc 4.1.2 20080704 (Red Hat 4.1.2-48)  configuration: --enable-libmp3lame --enable-shared --disable-mmx --arch=x86_64  libavutil     50.33. 0 / 50.33. 0  libavcore      0.12. 1 /  0.12. 1  libavcodec    52.94. 4 / 52.94. 4  libavformat   52.84. 0 / 52.84. 0  libavdevice   52. 2. 2 / 52. 2. 2  libavfilter    1.59. 0 /  1.59. 0  libswscale     0.12. 0 /  0.12. 0Seems stream 0 codec frame rate differs from container frame rate: 61440.00 (61440/1) -> 30.00 (30/1)Input #0, mov,mp4,m4a,3gp,3g2,mj2, from '/RAID10/data/converted_video_files/9778.mov':  Metadata:    major_brand     : qt      minor_version   : 537199360    compatible_brands: qt    Duration: 00:00:16.90, start: 0.000000, bitrate: 2466 kb/s    Stream #0.0(eng): Video: h264, yuv420p, 640x480, 2462 kb/s, 30 fps, 30 tbr, 30720 tbn, 61440 tbc[buffer @ 0x1e7f3030] w:640 h:480 pixfmt:yuv420pOutput #0, flv, to '/RAID10/data/converted_video_files/9778.flv':  Metadata:    encoder         : Lavf52.84.0    Stream #0.0(eng): Video: flv, yuv420p, 640x480, q=2-31, 600 kb/s, 1k tbn, 24 tbcStream mapping:  Stream #0.0 -> #0.0Press [q] to stop encodingframe=   68 fps=  0 q=6.9 size=     430kB time=2.83 bitrate=1244.6kbits/s dup=0 drop=16    frame=  130 fps=129 q=3.7 size=     653kB time=5.42 bitrate= 987.2kbits/s dup=0 drop=32    frame=  194 fps=129 q=9.7 size=     839kB time=8.08 bitrate= 850.6kbits/s dup=0 drop=48    frame=  257 fps=128 q=8.1 size=    1042kB time=10.71 bitrate= 797.1kbits/s dup=0 drop=64    frame=  311 fps=124 q=8.3 size=    1187kB time=12.96 bitrate= 750.2kbits/s dup=0 drop=77    frame=  389 fps=129 q=2.5 size=    1401kB time=16.21 bitrate= 708.0kbits/s dup=0 drop=97    frame=  406 fps=129 q=5.6 Lsize=    1446kB time=16.92 bitrate= 700.2kbits/s dup=0 drop=101    video:1439kB audio:0kB global headers:0kB muxing overhead 0.454990%